max v2;#N vpatcher 1807 272 3087 1028;#P origin 6 -10;#P window setfont "Sans Serif" 12.;#P window linecount 1;#P newex 527 36 67 196620 sb.chasm;#P window setfont "Sans Serif" 9.;#P message 271 203 14 196617 2;#P message 229 204 14 196617 1;#P newex 229 179 95 196617 route /kick /snare;#P newex 229 149 71 196617 route /drums;#P newex 527 68 122 196617 route /im_compromising;#P window linecount 3;#P message 480 643 369 196617 0 0 green_full \, 1 0 green_full \, 2 0 yellow_full \, 3 0 green_low \, 4 0 green_low \, 5 0 green_low \, 5 1 green_full \, 0 2 green_full \, 1 2 green_full \, 2 2 green_low \, 3 2 green_full \, 4 2 green_full \, 0 8 green_full \, 1 8 yellow_full \, 3 8 red_full;#P window linecount 1;#P newex 908 354 49 196617 *~ 0.7;#P newex 416 496 35 196617 * 1.7;#P newex 416 468 27 196617 !- 1;#P newex 416 440 48 196617 sb.qt A4;#P window setfont "Arial Bold" 14.;#N vpatcher 68 100 978 689;#P window setfont "Sans Serif" 9.;#P newex 151 303 27 196617 !- 1;#P newex 134 374 29 196617 gate;#P newex 168 332 47 196617 gate 1 1;#P window setfont Tahoma 10.;#P window linecount 1;#P newex 90 316 55 -1501560822 sb.qt A2 1;#P newex 138 274 55 -1501560822 sb.qt A1 0;#P newex 8 273 119 -1501560822 autopattr @autorestore 0;#X prestore nrgBass 1332 0 0 0 0 0 1 0 0 2 0 0 3 0 0 4 0 0 5 1 0 6 0 0 7 0 0 8 0 0 9 0 0 10 0 0 11 0 1 0 0 1;#X prestore nrgBass 1332 40 1 0 1 2 0 1 3 0 1 4 0 1 5 0 1 6 0 1 7 0 1 8 0 1 9 0 1 10 0 1 11 0 2 0 0 2 1 0 2 2;#X prestore nrgBass 1332 80 0 2 3 0 2 4 0 2 5 0 2 6 1 2 7 0 2 8 0 2 9 0 2 10 0 2 11 0 3 0 0 3 1 0 3 2 0 3 3 0;#X prestore nrgBass 1332 120 3 4 0 3 5 0 3 6 0 3 7 0 3 8 0 3 9 0 3 10 0 3 11 0 4 0 0 4 1 0 4 2 0 4 3 0 4 4 0 4;#X prestore nrgBass 1332 160 5 0 4 6 0 4 7 1 4 8 0 4 9 0 4 10 0 4 11 0 5 0 0 5 1 0 5 2 0 5 3 0 5 4 0 5 5 0 5 6;#X prestore nrgBass 1332 200 0 5 7 0 5 8 0 5 9 0 5 10 0 5 11 0 6 0 0 6 1 0 6 2 0 6 3 0 6 4 0 6 5 0 6 6 0 6 7 0;#X prestore nrgBass 1332 240 6 8 0 6 9 1 6 10 0 6 11 0 7 0 0 7 1 0 7 2 0 7 3 0 7 4 0 7 5 0 7 6 0 7 7 0 7 8 0 7;#X prestore nrgBass 1332 280 9 0 7 10 0 7 11 0 8 0 0 8 1 0 8 2 0 8 3 0 8 4 0 8 5 0 8 6 0 8 7 0 8 8 0 8 9 0 8 10;#X prestore nrgBass 1332 320 0 8 11 0 9 0 0 9 1 0 9 2 0 9 3 0 9 4 0 9 5 0 9 6 0 9 7 0 9 8 0 9 9 0 9 10 0 9 11 0;#X prestore nrgBass 1332 360 10 0 0 10 1 0 10 2 0 10 3 0 10 4 0 10 5 0 10 6 0 10 7 0 10 8 0 10 9 0 10 10 0 10 11 0 11 0 0 11;#X prestore nrgBass 1332 400 1 0 11 2 0 11 3 0 11 4 0 11 5 0 11 6 0 11 7 0 11 8 0 11 9 0 11 10 0 11 11 0 12 0 0 12 1 0 12 2;#X prestore nrgBass 1332 440 0 12 3 0 12 4 0 12 5 0 12 6 0 12 7 0 12 8 0 12 9 0 12 10 0 12 11 0 13 0 0 13 1 0 13 2 0 13 3 0;#X prestore nrgBass 1332 480 13 4 0 13 5 0 13 6 0 13 7 0 13 8 0 13 9 0 13 10 0 13 11 0 14 0 0 14 1 0 14 2 0 14 3 0 14 4 0 14;#X prestore nrgBass 1332 520 5 0 14 6 0 14 7 0 14 8 0 14 9 0 14 10 0 14 11 0 15 0 0 15 1 0 15 2 0 15 3 0 15 4 0 15 5 0 15 6;#X prestore nrgBass 1332 560 0 15 7 0 15 8 0 15 9 0 15 10 0 15 11 0 16 0 0 16 1 0 16 2 0 16 3 0 16 4 0 16 5 0 16 6 0 16 7 0;#X prestore nrgBass 1332 600 16 8 0 16 9 0 16 10 0 16 11 0 17 0 0 17 1 0 17 2 0 17 3 0 17 4 0 17 5 0 17 6 0 17 7 0 17 8 0 17;#X prestore nrgBass 1332 640 9 0 17 10 0 17 11 0 18 0 0 18 1 0 18 2 0 18 3 0 18 4 0 18 5 0 18 6 0 18 7 0 18 8 0 18 9 0 18 10;#X prestore nrgBass 1332 680 0 18 11 0 19 0 0 19 1 0 19 2 0 19 3 0 19 4 0 19 5 0 19 6 0 19 7 0 19 8 0 19 9 0 19 10 0 19 11 0;#X prestore nrgBass 1332 720 20 0 0 20 1 0 20 2 0 20 3 0 20 4 0 20 5 0 20 6 0 20 7 0 20 8 0 20 9 0 20 10 0 20 11 0 21 0 0 21;#X prestore nrgBass 1332 760 1 0 21 2 0 21 3 0 21 4 0 21 5 0 21 6 0 21 7 0 21 8 0 21 9 0 21 10 0 21 11 0 22 0 0 22 1 0 22 2;#X prestore nrgBass 1332 800 0 22 3 0 22 4 0 22 5 0 22 6 0 22 7 0 22 8 0 22 9 0 22 10 0 22 11 0 23 0 0 23 1 0 23 2 0 23 3 0;#X prestore nrgBass 1332 840 23 4 0 23 5 0 23 6 0 23 7 0 23 8 0 23 9 0 23 10 0 23 11 0 24 0 0 24 1 0 24 2 0 24 3 0 24 4 0 24;#X prestore nrgBass 1332 880 5 1 24 6 0 24 7 0 24 8 0 24 9 0 24 10 0 24 11 0 25 0 0 25 1 0 25 2 0 25 3 0 25 4 0 25 5 0 25 6;#X prestore nrgBass 1332 920 0 25 7 0 25 8 0 25 9 0 25 10 0 25 11 0 26 0 0 26 1 0 26 2 0 26 3 0 26 4 0 26 5 0 26 6 1 26 7 0;#X prestore nrgBass 1332 960 26 8 0 26 9 0 26 10 0 26 11 0 27 0 0 27 1 0 27 2 0 27 3 0 27 4 0 27 5 0 27 6 0 27 7 0 27 8 0 27;#X prestore nrgBass 1332 1000 9 0 27 10 0 27 11 0 28 0 0 28 1 0 28 2 0 28 3 0 28 4 0 28 5 0 28 6 0 28 7 1 28 8 0 28 9 0 28 10;#X prestore nrgBass 1332 1040 0 28 11 0 29 0 0 29 1 0 29 2 0 29 3 0 29 4 0 29 5 0 29 6 0 29 7 0 29 8 0 29 9 0 29 10 0 29 11 0;#X prestore nrgBass 1332 1080 30 0 0 30 1 0 30 2 0 30 3 0 30 4 0 30 5 0 30 6 0 30 7 0 30 8 0 30 9 1 30 10 0 30 11 0 31 0 0 31;#X prestore nrgBass 1332 1120 1 0 31 2 0 31 3 0 31 4 0 31 5 0 31 6 0 31 7 0 31 8 0 31 9 0 31 10 0 31 11 0 32 0 0 32 1 0 32 2;#X prestore nrgBass 1332 1160 0 32 3 0 32 4 0 32 5 0 32 6 0 32 7 0 32 8 0 32 9 0 32 10 0 32 11 0 33 0 0 33 1 0 33 2 0 33 3 0;#X prestore nrgBass 1332 1200 33 4 0 33 5 0 33 6 0 33 7 0 33 8 0 33 9 0 33 10 0 33 11 0 34 0 0 34 1 0 34 2 0 34 3 0 34 4 0 34;#X prestore nrgBass 1332 1240 5 0 34 6 0 34 7 0 34 8 0 34 9 0 34 10 0 34 11 0 35 0 0 35 1 0 35 2 0 35 3 0 35 4 0 35 5 0 35 6;#X prestore nrgBass 1332 1280 0 35 7 0 35 8 0 35 9 0 35 10 0 35 11 0 36 0 0 36 1 0 36 2 0 36 3 0 36 4 0 36 5 0 36 6 0 36 7 0;#X prestore nrgBass 1332 1320 36 8 0 36 9 0 36 10 0 36 11 0;#P objectname u066000195;#P window setfont "Sans Serif" 9.;#P window linecount 0;#P newex 190 504 81 196617 sb.transpose -2;#P bpatcher 205 93 610 19 16 -432 sb.matrixSeq.mxb 5 1 16 32 0;#P user matrixctrl 221 115 609 196 MatrixDefaultCell.pct MatrixDefaultBkgnd.pct 609 196 16 16 37 12 16 16 1 1 48 2 5120 0;#P objectname nrgBass;#P outlet 190 528 15 0;#P window setfont Tahoma 10.;#P newex 190 480 64 -1501560822 sb.qaccomp;#P newex 190 453 29 -1501560822 pack;#P newex 190 425 90 -1501560822 makenote 120 200;#P connect 8 2 11 0;#P connect 9 2 11 0;#P connect 8 0 12 0;#P connect 10 0 11 1;#P connect 12 0 10 0;#P connect 11 0 0 0;#P connect 0 0 1 0;#P connect 1 0 2 0;#P connect 2 0 6 0;#P connect 6 0 3 0;#P connect 5 0 10 1;#P fasten 0 1 1 1 275 447 214 447;#P hidden connect 5 1 4 0;#P fasten 4 1 5 1 825 312 832 312 832 90 810 90;#P pop;#P newobj 658 88 73 -1195376626 p melody;#P objectname bassline[2];#N vpatcher 273 134 1121 703;#P window setfont Tahoma 10.;#P window linecount 1;#P newex 87 341 68 -1501560822 sb.qt EfMaj 1;#P window setfont "Sans Serif" 9.;#P newex 175 377 47 196617 gate 1 1;#P window setfont Tahoma 10.;#P newex 17 341 67 -1501560822 sb.qt Df7th 0;#P window setfont "Sans Serif" 9.;#P window linecount 0;#P newex 175 340 29 196617 gate;#P window setfont Tahoma 10.;#P window linecount 1;#P newex 34 45 116 -1501560822 sb.songcontrol.pulse 12;#P newex 136 312 47 -1501560822 sb.qt A1;#P newex 8 273 119 -1501560822 autopattr @autorestore 0;#X prestore nrgBass 576 0 0 0 0 0 1 0 0 2 0 0 3 0 0 4 0 0 5 0 0 6 0 0 7 1 0 8 0 0 9 0 0 10 0 0 11 0 1 0 0 1;#X prestore nrgBass 576 40 1 0 1 2 0 1 3 0 1 4 0 1 5 0 1 6 1 1 7 0 1 8 0 1 9 0 1 10 0 1 11 0 2 0 0 2 1 0 2 2;#X prestore nrgBass 576 80 0 2 3 0 2 4 0 2 5 1 2 6 0 2 7 0 2 8 0 2 9 0 2 10 0 2 11 0 3 0 0 3 1 0 3 2 0 3 3 0;#X prestore nrgBass 576 120 3 4 0 3 5 0 3 6 1 3 7 0 3 8 0 3 9 0 3 10 0 3 11 0 4 0 0 4 1 0 4 2 0 4 3 0 4 4 0 4;#X prestore nrgBass 576 160 5 0 4 6 0 4 7 1 4 8 0 4 9 0 4 10 0 4 11 0 5 0 0 5 1 0 5 2 0 5 3 0 5 4 0 5 5 0 5 6;#X prestore nrgBass 576 200 1 5 7 0 5 8 0 5 9 0 5 10 0 5 11 0 6 0 0 6 1 0 6 2 0 6 3 0 6 4 0 6 5 1 6 6 0 6 7 0;#X prestore nrgBass 576 240 6 8 0 6 9 0 6 10 0 6 11 0 7 0 0 7 1 0 7 2 0 7 3 0 7 4 0 7 5 0 7 6 1 7 7 0 7 8 0 7;#X prestore nrgBass 576 280 9 0 7 10 0 7 11 0 8 0 0 8 1 0 8 2 0 8 3 0 8 4 0 8 5 0 8 6 0 8 7 1 8 8 0 8 9 0 8 10;#X prestore nrgBass 576 320 0 8 11 0 9 0 0 9 1 0 9 2 0 9 3 0 9 4 0 9 5 0 9 6 1 9 7 0 9 8 0 9 9 0 9 10 0 9 11 0;#X prestore nrgBass 576 360 10 0 0 10 1 0 10 2 0 10 3 0 10 4 0 10 5 1 10 6 0 10 7 0 10 8 0 10 9 0 10 10 0 10 11 0 11 0 0 11;#X prestore nrgBass 576 400 1 0 11 2 0 11 3 0 11 4 0 11 5 0 11 6 1 11 7 0 11 8 0 11 9 0 11 10 0 11 11 0 12 0 0 12 1 0 12 2;#X prestore nrgBass 576 440 0 12 3 0 12 4 0 12 5 0 12 6 0 12 7 0 12 8 0 12 9 0 12 10 0 12 11 0 13 0 0 13 1 0 13 2 0 13 3 0;#X prestore nrgBass 576 480 13 4 0 13 5 0 13 6 0 13 7 0 13 8 0 13 9 0 13 10 0 13 11 0 14 0 0 14 1 0 14 2 0 14 3 0 14 4 0 14;#X prestore nrgBass 576 520 5 0 14 6 0 14 7 0 14 8 0 14 9 0 14 10 0 14 11 0 15 0 0 15 1 0 15 2 0 15 3 0 15 4 0 15 5 0 15 6;#X prestore nrgBass 576 560 0 15 7 0 15 8 0 15 9 0 15 10 0 15 11 0;#P objectname u461000197;#P window setfont "Sans Serif" 9.;#P window linecount 0;#P newex 175 495 81 196617 sb.transpose -2;#P bpatcher 205 93 275 17 16 -432 sb.matrixSeq.sos.mxt 5 1 16 12 0;#P user matrixctrl 221 115 258 194 MatrixDefaultCell.pct MatrixDefaultBkgnd.pct 258 194 16 16 16 12 16 16 1 1 48 2 5120 0;#P objectname nrgBass;#P outlet 175 519 15 0;#P window setfont Tahoma 10.;#P newex 175 471 64 -1501560822 sb.qaccomp;#P newex 175 444 29 -1501560822 pack;#P newex 175 416 90 -1501560822 makenote 120 200;#P connect 8 0 10 0;#P connect 11 2 12 0;#P connect 13 2 12 0;#P connect 12 0 0 0;#P connect 0 0 1 0;#P connect 1 0 2 0;#P connect 2 0 6 0;#P connect 6 0 3 0;#P connect 5 0 10 1;#P fasten 0 1 1 1 260 438 199 438;#P fasten 9 0 5 0 39 77 210 77;#P connect 10 0 12 1;#P hidden connect 5 1 4 0;#P fasten 4 1 5 1 474 312 482 312 482 90 475 90;#P pop;#P newobj 962 75 62 -1195376626 p arpeg;#P objectname bassline[1];#N vpatcher 73 119 1254 690;#P window setfont Tahoma 10.;#P window linecount 1;#P newex 391 282 68 -1501560822 sb.qt EfMaj 1;#P window setfont "Sans Serif" 9.;#P newex 463 314 58 196617 switch 2 1;#P window setfont Tahoma 10.;#P newex 407 257 67 -1501560822 sb.qt Df7th 2;#P window setfont "Sans Serif" 9.;#P window linecount 0;#P newex 142 252 27 196617 + 1;#P newex 182 345 58 196617 switch 2 1;#P bpatcher 768 35 275 17 16 -432 sb.matrixSeq.mxb 5 1 16 16 0;#P user matrixctrl 784 57 258 194 MatrixDefaultCell.pct MatrixDefaultBkgnd.pct 258 194 16 16 16 12 16 16 1 1 48 2 5120 0;#P objectname nrgBass[2];#P window setfont Tahoma 10.;#P window linecount 1;#P newex 142 218 47 -1501560822 sb.qt A1;#P bpatcher 487 35 275 17 16 -432 sb.matrixSeq.mxb 5 1 16 16 0;#P user matrixctrl 503 57 258 194 MatrixDefaultCell.pct MatrixDefaultBkgnd.pct 258 194 16 16 16 12 16 16 1 1 48 2 5120 0;#P objectname nrgBass[1];#P newex 9 218 119 -1501560822 autopattr @autorestore 0;#X prestore nrgBass 576 0 0 0 0 0 1 0 0 2 0 0 3 0 0 4 0 0 5 0 0 6 0 0 7 1 0 8 0 0 9 0 0 10 0 0 11 0 1 0 0 1;#X prestore nrgBass 576 40 1 0 1 2 0 1 3 0 1 4 0 1 5 0 1 6 0 1 7 0 1 8 0 1 9 0 1 10 0 1 11 0 2 0 0 2 1 0 2 2;#X prestore nrgBass 576 80 0 2 3 0 2 4 0 2 5 0 2 6 0 2 7 1 2 8 0 2 9 0 2 10 0 2 11 0 3 0 0 3 1 0 3 2 0 3 3 0;#X prestore nrgBass 576 120 3 4 0 3 5 0 3 6 0 3 7 0 3 8 0 3 9 0 3 10 0 3 11 0 4 0 0 4 1 0 4 2 0 4 3 0 4 4 0 4;#X prestore nrgBass 576 160 5 0 4 6 0 4 7 0 4 8 0 4 9 0 4 10 0 4 11 0 5 0 0 5 1 0 5 2 0 5 3 0 5 4 0 5 5 0 5 6;#X prestore nrgBass 576 200 0 5 7 0 5 8 0 5 9 0 5 10 0 5 11 0 6 0 0 6 1 0 6 2 0 6 3 0 6 4 0 6 5 0 6 6 0 6 7 1;#X prestore nrgBass 576 240 6 8 0 6 9 0 6 10 0 6 11 0 7 0 0 7 1 0 7 2 0 7 3 0 7 4 0 7 5 0 7 6 0 7 7 0 7 8 0 7;#X prestore nrgBass 576 280 9 0 7 10 0 7 11 0 8 0 0 8 1 0 8 2 0 8 3 0 8 4 0 8 5 0 8 6 0 8 7 1 8 8 0 8 9 0 8 10;#X prestore nrgBass 576 320 0 8 11 0 9 0 0 9 1 0 9 2 0 9 3 0 9 4 0 9 5 0 9 6 0 9 7 0 9 8 0 9 9 0 9 10 0 9 11 0;#X prestore nrgBass 576 360 10 0 0 10 1 0 10 2 0 10 3 0 10 4 0 10 5 0 10 6 0 10 7 0 10 8 0 10 9 0 10 10 0 10 11 0 11 0 0 11;#X prestore nrgBass 576 400 1 0 11 2 0 11 3 0 11 4 0 11 5 0 11 6 0 11 7 0 11 8 0 11 9 0 11 10 0 11 11 0 12 0 0 12 1 0 12 2;#X prestore nrgBass 576 440 0 12 3 0 12 4 0 12 5 0 12 6 0 12 7 0 12 8 0 12 9 1 12 10 0 12 11 0 13 0 0 13 1 0 13 2 0 13 3 0;#X prestore nrgBass 576 480 13 4 0 13 5 0 13 6 0 13 7 0 13 8 0 13 9 0 13 10 0 13 11 0 14 0 0 14 1 0 14 2 0 14 3 0 14 4 0 14;#X prestore nrgBass 576 520 5 0 14 6 0 14 7 0 14 8 0 14 9 0 14 10 0 14 11 0 15 0 0 15 1 0 15 2 0 15 3 0 15 4 0 15 5 0 15 6;#X prestore nrgBass 576 560 0 15 7 0 15 8 0 15 9 0 15 10 0 15 11 0;#X prestore nrgBass[1] 576 0 0 0 0 0 1 0 0 2 0 0 3 0 0 4 0 0 5 0 0 6 0 0 7 1 0 8 0 0 9 0 0 10 0 0 11 0 1 0 0 1;#X prestore nrgBass[1] 576 40 1 0 1 2 0 1 3 0 1 4 0 1 5 0 1 6 0 1 7 0 1 8 0 1 9 0 1 10 0 1 11 0 2 0 0 2 1 0 2 2;#X prestore nrgBass[1] 576 80 0 2 3 0 2 4 0 2 5 0 2 6 0 2 7 1 2 8 0 2 9 0 2 10 0 2 11 0 3 0 0 3 1 0 3 2 0 3 3 0;#X prestore nrgBass[1] 576 120 3 4 0 3 5 0 3 6 0 3 7 0 3 8 0 3 9 0 3 10 0 3 11 0 4 0 0 4 1 0 4 2 0 4 3 0 4 4 0 4;#X prestore nrgBass[1] 576 160 5 0 4 6 0 4 7 1 4 8 0 4 9 0 4 10 0 4 11 0 5 0 0 5 1 0 5 2 0 5 3 0 5 4 0 5 5 0 5 6;#X prestore nrgBass[1] 576 200 0 5 7 0 5 8 0 5 9 0 5 10 0 5 11 0 6 0 0 6 1 0 6 2 0 6 3 0 6 4 0 6 5 0 6 6 0 6 7 1;#X prestore nrgBass[1] 576 240 6 8 0 6 9 0 6 10 0 6 11 0 7 0 0 7 1 0 7 2 0 7 3 0 7 4 0 7 5 0 7 6 0 7 7 0 7 8 0 7;#X prestore nrgBass[1] 576 280 9 0 7 10 0 7 11 0 8 0 0 8 1 0 8 2 0 8 3 0 8 4 0 8 5 0 8 6 0 8 7 1 8 8 0 8 9 0 8 10;#X prestore nrgBass[1] 576 320 0 8 11 0 9 0 0 9 1 0 9 2 0 9 3 0 9 4 0 9 5 0 9 6 0 9 7 0 9 8 0 9 9 0 9 10 0 9 11 0;#X prestore nrgBass[1] 576 360 10 0 0 10 1 0 10 2 0 10 3 0 10 4 0 10 5 0 10 6 0 10 7 1 10 8 0 10 9 0 10 10 0 10 11 0 11 0 0 11;#X prestore nrgBass[1] 576 400 1 0 11 2 0 11 3 0 11 4 0 11 5 0 11 6 0 11 7 0 11 8 0 11 9 0 11 10 0 11 11 0 12 0 0 12 1 0 12 2;#X prestore nrgBass[1] 576 440 0 12 3 0 12 4 0 12 5 0 12 6 0 12 7 1 12 8 0 12 9 0 12 10 0 12 11 0 13 0 0 13 1 0 13 2 0 13 3 0;#X prestore nrgBass[1] 576 480 13 4 0 13 5 0 13 6 0 13 7 0 13 8 0 13 9 0 13 10 0 13 11 0 14 0 0 14 1 0 14 2 0 14 3 0 14 4 0 14;#X prestore nrgBass[1] 576 520 5 0 14 6 0 14 7 1 14 8 0 14 9 0 14 10 0 14 11 0 15 0 0 15 1 0 15 2 0 15 3 0 15 4 0 15 5 0 15 6;#X prestore nrgBass[1] 576 560 0 15 7 0 15 8 0 15 9 0 15 10 0 15 11 0;#X prestore nrgBass[2] 576 0 0 0 0 0 1 0 0 2 0 0 3 0 0 4 0 0 5 0 0 6 0 0 7 1 0 8 0 0 9 0 0 10 0 0 11 0 1 0 0 1;#X prestore nrgBass[2] 576 40 1 0 1 2 0 1 3 0 1 4 0 1 5 0 1 6 0 1 7 0 1 8 0 1 9 0 1 10 0 1 11 0 2 0 0 2 1 0 2 2;#X prestore nrgBass[2] 576 80 0 2 3 0 2 4 0 2 5 0 2 6 0 2 7 0 2 8 0 2 9 0 2 10 0 2 11 0 3 0 0 3 1 0 3 2 0 3 3 0;#X prestore nrgBass[2] 576 120 3 4 0 3 5 0 3 6 0 3 7 0 3 8 0 3 9 0 3 10 0 3 11 0 4 0 0 4 1 0 4 2 0 4 3 0 4 4 0 4;#X prestore nrgBass[2] 576 160 5 0 4 6 0 4 7 1 4 8 0 4 9 0 4 10 0 4 11 0 5 0 0 5 1 0 5 2 0 5 3 0 5 4 0 5 5 0 5 6;#X prestore nrgBass[2] 576 200 0 5 7 0 5 8 0 5 9 0 5 10 0 5 11 0 6 0 0 6 1 0 6 2 0 6 3 0 6 4 0 6 5 0 6 6 0 6 7 0;#X prestore nrgBass[2] 576 240 6 8 0 6 9 0 6 10 0 6 11 0 7 0 0 7 1 0 7 2 0 7 3 0 7 4 0 7 5 0 7 6 0 7 7 0 7 8 0 7;#X prestore nrgBass[2] 576 280 9 0 7 10 0 7 11 0 8 0 0 8 1 0 8 2 0 8 3 0 8 4 0 8 5 0 8 6 0 8 7 1 8 8 0 8 9 0 8 10;#X prestore nrgBass[2] 576 320 0 8 11 0 9 0 0 9 1 0 9 2 0 9 3 0 9 4 0 9 5 0 9 6 0 9 7 0 9 8 0 9 9 0 9 10 0 9 11 0;#X prestore nrgBass[2] 576 360 10 0 0 10 1 0 10 2 0 10 3 0 10 4 0 10 5 0 10 6 0 10 7 0 10 8 0 10 9 0 10 10 0 10 11 0 11 0 0 11;#X prestore nrgBass[2] 576 400 1 0 11 2 0 11 3 0 11 4 0 11 5 0 11 6 0 11 7 0 11 8 0 11 9 0 11 10 0 11 11 0 12 0 0 12 1 0 12 2;#X prestore nrgBass[2] 576 440 0 12 3 0 12 4 0 12 5 0 12 6 0 12 7 1 12 8 0 12 9 0 12 10 0 12 11 0 13 0 0 13 1 0 13 2 0 13 3 0;#X prestore nrgBass[2] 576 480 13 4 0 13 5 0 13 6 0 13 7 0 13 8 0 13 9 0 13 10 0 13 11 0 14 0 0 14 1 0 14 2 0 14 3 0 14 4 0 14;#X prestore nrgBass[2] 576 520 5 0 14 6 0 14 7 0 14 8 0 14 9 0 14 10 0 14 11 0 15 0 0 15 1 0 15 2 0 15 3 0 15 4 0 15 5 0 15 6;#X prestore nrgBass[2] 576 560 0 15 7 0 15 8 0 15 9 0 15 10 0 15 11 0;#P objectname u079000199;#P window setfont "Sans Serif" 9.;#P window linecount 0;#P newex 182 449 81 196617 sb.transpose -2;#P bpatcher 206 35 275 17 16 -432 sb.matrixSeq.mxb 5 1 16 16 0;#P user matrixctrl 222 57 258 194 MatrixDefaultCell.pct MatrixDefaultBkgnd.pct 258 194 16 16 16 12 16 16 1 1 48 2 5120 0;#P objectname nrgBass;#P outlet 182 473 15 0;#P window setfont Tahoma 10.;#P newex 182 425 64 -1501560822 sb.qaccomp;#P newex 182 398 29 -1501560822 pack;#P newex 182 370 90 -1501560822 makenote 120 200;#P connect 10 0 14 0;#P connect 14 0 13 0;#P connect 13 0 0 0;#P connect 0 0 1 0;#P connect 1 0 2 0;#P connect 2 0 6 0;#P connect 6 0 3 0;#P fasten 0 1 1 1 267 392 206 392;#P connect 5 0 13 1;#P hidden connect 5 1 4 0;#P fasten 16 0 13 2 468 338 235 338;#P connect 17 2 16 0;#P connect 15 2 16 0;#P fasten 4 1 5 1 475 254 483 254 483 32 476 32;#P connect 9 0 16 1;#P hidden connect 9 1 8 0;#P fasten 12 0 16 2 773 270 516 270;#P fasten 8 1 9 1 756 254 764 254 764 32 757 32;#P hidden connect 12 1 11 0;#P fasten 11 1 12 1 1037 254 1045 254 1045 32 1038 32;#P pop;#P newobj 39 441 81 -1195376626 p bassline;#P objectname bassline;#P window setfont Tahoma 10.;#P newex 298 439 85 -1501560822 sb.stereogain 1.7;#P window setfont Tahoma 18.;#N vpatcher 85 125 1172 520;#P bpatcher 40 33 997 300 0 0 sb.mixer.18channel.mxt 1;#P objectname sb.mixer.18channel.mxt;#P pop;#P newobj 69 67 69 -1501560814 p mixer;#P objectname mixer;#P window setfont Tahoma 10.;#P newex 38 677 69 -1501560822 overdrive~ 2;#P newex 39 652 74 -1501560822 downsamp~ 2;#P newex 659 263 74 -1501560822 downsamp~ 3;#P bpatcher 960 156 187 154 -447 -260 sb.polySampler~.mxb 1 asjahdbajdhb;#P objectname sb.polySampler~.mxb;#P newex 38 476 83 -1501560822 sb.transpose -24;#P bpatcher 161 231 362 188 0 0 sb.drumBank~.mxb 0;#P objectname sb.drumBank~.mxb;#P newex 39 704 50 -1501560822 sb.ms~ 3;#P newex 811 595 50 -1501560822 sb.ms~ 2;#P bpatcher 811 414 87 173 0 0 sb.delay.wrapper~ 1;#P objectname sb.delay.wrapper~;#P bpatcher 39 511 256 129 0 0 sb.polySynth1~.mxb 1;#P objectname sb.polySynth1~.mxb[3];#P bpatcher 659 120 256 129 0 0 sb.polySynth1~.mxb 1;#P objectname sb.polySynth1~.mxb[1];#P window setfont Tahoma 9.;#P newex 318 471 42 -1501560823 sb.ss~ 1;#P bpatcher 1 49 61 150 0 0 sb.pattrstorageController.mxb 1;#P window setfont Tahoma 10.;#P newex 1 287 119 -1501560822 autopattr @autorestore 0;#P objectname u689000383;#P window linecount 3;#P newex 1 226 139 -1501560822 pattrstorage im_compromising-chasm @greedy 1 @autorestore 1;#X autorestore im_compromising-chasm.xml;#X client_rect 0 0 640 240;#X storage_rect 0 0 640 240;#P objectname im_compromising-chasm;#P window setfont "Arial Black" 14.;#P window linecount 1;#P comment 0 21 336 -1375731698 I'M COMPROMISING;#P connect 3 0 1 0;#P connect 18 0 11 0;#P connect 14 0 15 0;#P connect 6 0 14 0;#P connect 15 0 9 0;#P connect 30 0 10 0;#P connect 29 0 10 0;#P connect 26 0 27 0;#P connect 27 0 28 0;#P connect 28 0 29 0;#P connect 28 1 30 0;#P connect 10 0 17 0;#P connect 17 0 4 0;#P connect 10 1 17 1;#P connect 17 1 4 1;#P connect 23 0 17 2;#P connect 21 0 22 0;#P connect 22 0 23 0;#P connect 31 0 26 0;#P connect 5 0 13 0;#P connect 24 0 7 0;#P connect 13 0 7 0;#P connect 7 0 8 0;#P connect 12 0 24 0;#P pop;