max v2;#N vpatcher 192 424 1472 1176;#P origin 0 11;#P window setfont "Sans Serif" 9.;#P newex 196 396 32 196617 print;#P newex 19 418 30 196617 pack;#P newex 19 393 94 196617 makenote 120 100;#P newex 19 340 62 196617 route /note;#P newex 19 312 66 196617 route /piano;#P window setfont "Sans Serif" 18.;#P newex 406 70 166 196626 route /the_locust;#P window setfont "Sans Serif" 9.;#P newex 406 42 51 196617 sb.chasm;#N vpatcher 478 103 1078 503;#P button 107 138 15 0;#P window setfont "Sans Serif" 9.;#P window linecount 0;#P newex 186 103 55 196617 sb.qstrum;#P window setfont Tahoma 10.;#P window linecount 1;#P newex 183 308 46 -1501560822 sb.ss~ 5;#P bpatcher 185 147 187 154 -447 -260 sb.polySampler~.mxb 1 asjahdbajdhb;#P objectname sb.polySampler~.mxb[2];#P connect 2 0 3 0;#P connect 0 0 1 0;#P connect 2 0 0 0;#P connect 0 1 1 1;#P pop;#P newobj 459 661 36 196617 p solo;#P objectname solo;#P window setfont Tahoma 10.;#P newex 657 684 46 -1501560822 sb.ss~ 6;#P newex 693 551 80 -1501560822 receive~ aux1.r;#P newex 603 551 78 -1501560822 receive~ aux1.l;#P bpatcher 637 578 89 100 0 0 sb.freeverb~ 1;#P objectname sb.freeverb~;#P newex 697 460 67 -1501560822 sb.qt Df7th 1;#P newex 776 484 36 -1501560822 gate~;#P newex 667 485 36 -1501560822 gate~;#P newex 709 512 46 -1501560822 sb.ss~ 4;#P bpatcher 674 300 187 154 -447 -260 sb.polySampler~.mxb 1 asjahdbajdhb;#P objectname sb.polySampler~.mxb[1];#P newex 675 275 74 -1501560822 sb.transpose 0;#P newex 388 553 64 -1501560822 sb.qaccomp;#P newex 388 527 29 -1501560822 pack;#P newex 388 501 85 -1501560822 makenote 120 100;#P bpatcher 385 274 275 17 16 -432 sb.matrixSeq.mxb 5 1 16 16 0;#P user matrixctrl 401 296 258 194 MatrixDefaultCell.pct MatrixDefaultBkgnd.pct 258 194 16 16 16 12 16 16 1 1 48 2 5120 0;#P objectname nrgBass[2];#P newex 818 116 69 -1501560822 sb.qt DfMin 1;#P newex 866 50 69 -1501560822 sb.qt DfMaj 0;#P newex 933 541 36 -1501560822 gate~;#P newex 1004 688 230 -1501560822 sb.qchord.setchordmap the_locust_chordmap.txt;#P newex 17 621 46 -1501560822 sb.ss~ 3;#P bpatcher 19 460 187 154 -447 -260 sb.polySampler~.mxb 1 asjahdbajdhb;#P objectname sb.polySampler~.mxb[2];#P window setfont "Sans Serif" 9.;#P window linecount 4;#P message 882 627 367 196617 0 0 yellow_full \, 1 0 green_full \, 2 0 green_full \, 3 0 green_full \, 0 1 green_full \, 1 1 green_full \, 2 1 green_full \, 3 1 green_full \, 0 2 green_full \, 1 2 green_full \, 2 2 green_full \, 3 2 green_full \, 4 2 green_full \, 5 2 green_full \, 6 2 green_full \, 7 2 green_full \, 0 8 yellow_full \, 1 8 green_full \, 2 8 green_full \, 3 8 red_full;#P window linecount 1;#P newex 883 685 93 196617 sb.lp.setsonglights;#P window setfont Tahoma 18.;#N vpatcher 24 73 1161 669;#P bpatcher 40 30 995 298 0 0 sb.mixer.18channel.mxt 1;#P objectname sb.mixer.18channel.mxt;#P pop;#P newobj 76 61 69 -1501560814 p mixer;#P objectname mixer;#P window setfont Tahoma 10.;#P newex 968 36 56 -1501560822 sb.qchord;#P newex 950 212 36 -1501560822 gate~;#P window setfont "Arial Black" 18.;#P comment 1053 18 156 -1375731694 THE LOCUST;#P window setfont Tahoma 10.;#P newex 899 250 46 -1501560822 sb.ss~ 2;#P bpatcher 968 66 256 129 0 0 sb.polySynth1~.mxb 1;#P objectname sb.polySynth1~.mxb;#P window setfont "Sans Serif" 9.;#P newex 931 566 51 196617 sb.ms~ 2;#P bpatcher 957 276 276 256 0 0 sb.monoSynth1~.mxb 1;#P objectname sb.monoSynth1~.mxb;#P window setfont Tahoma 9.;#P newex 407 249 42 -1501560823 sb.ss~ 1;#P bpatcher 7 28 61 150 0 0 sb.pattrstorageController.mxb 1;#P window setfont Tahoma 10.;#P newex 7 249 119 -1501560822 autopattr @autorestore 0;#X prestore nrgBass[2] 576 0 0 0 0 0 1 0 0 2 0 0 3 0 0 4 0 0 5 0 0 6 0 0 7 0 0 8 1 0 9 0 0 10 0 0 11 0 1 0 0 1;#X prestore nrgBass[2] 576 40 1 0 1 2 0 1 3 0 1 4 0 1 5 0 1 6 0 1 7 0 1 8 0 1 9 0 1 10 0 1 11 0 2 0 0 2 1 0 2 2;#X prestore nrgBass[2] 576 80 0 2 3 0 2 4 0 2 5 0 2 6 0 2 7 0 2 8 0 2 9 1 2 10 0 2 11 0 3 0 0 3 1 0 3 2 0 3 3 0;#X prestore nrgBass[2] 576 120 3 4 0 3 5 0 3 6 0 3 7 0 3 8 0 3 9 0 3 10 0 3 11 0 4 0 0 4 1 0 4 2 0 4 3 0 4 4 0 4;#X prestore nrgBass[2] 576 160 5 0 4 6 0 4 7 0 4 8 0 4 9 0 4 10 1 4 11 0 5 0 0 5 1 0 5 2 0 5 3 0 5 4 0 5 5 0 5 6;#X prestore nrgBass[2] 576 200 0 5 7 0 5 8 0 5 9 0 5 10 0 5 11 0 6 0 0 6 1 0 6 2 0 6 3 0 6 4 0 6 5 0 6 6 0 6 7 0;#X prestore nrgBass[2] 576 240 6 8 0 6 9 0 6 10 0 6 11 1 7 0 0 7 1 0 7 2 0 7 3 0 7 4 0 7 5 0 7 6 0 7 7 0 7 8 0 7;#X prestore nrgBass[2] 576 280 9 0 7 10 0 7 11 0 8 0 0 8 1 0 8 2 0 8 3 0 8 4 0 8 5 0 8 6 0 8 7 0 8 8 1 8 9 0 8 10;#X prestore nrgBass[2] 576 320 0 8 11 0 9 0 0 9 1 0 9 2 0 9 3 0 9 4 0 9 5 0 9 6 0 9 7 0 9 8 0 9 9 0 9 10 0 9 11 0;#X prestore nrgBass[2] 576 360 10 0 0 10 1 0 10 2 0 10 3 0 10 4 0 10 5 0 10 6 0 10 7 0 10 8 0 10 9 1 10 10 0 10 11 0 11 0 0 11;#X prestore nrgBass[2] 576 400 1 0 11 2 0 11 3 0 11 4 0 11 5 0 11 6 0 11 7 0 11 8 0 11 9 0 11 10 0 11 11 0 12 0 0 12 1 0 12 2;#X prestore nrgBass[2] 576 440 0 12 3 0 12 4 0 12 5 0 12 6 0 12 7 0 12 8 0 12 9 0 12 10 1 12 11 0 13 0 0 13 1 0 13 2 0 13 3 0;#X prestore nrgBass[2] 576 480 13 4 0 13 5 0 13 6 0 13 7 0 13 8 0 13 9 0 13 10 0 13 11 0 14 0 0 14 1 0 14 2 0 14 3 0 14 4 0 14;#X prestore nrgBass[2] 576 520 5 0 14 6 0 14 7 0 14 8 0 14 9 0 14 10 0 14 11 1 15 0 0 15 1 0 15 2 0 15 3 0 15 4 0 15 5 0 15 6;#X prestore nrgBass[2] 576 560 0 15 7 0 15 8 0 15 9 0 15 10 0 15 11 0;#P objectname u516000167;#P newex 7 190 267 -1501560822 pattrstorage the_locust-chasm @greedy 1 @autorestore 1;#X autorestore the_locust-chasm.xml;#X client_rect 0 0 640 240;#X storage_rect 0 0 640 240;#P objectname the_locust-chasm;#P newex 958 249 83 -1501560822 sb.transpose -12;#P connect 3 0 1 0;#P connect 15 0 16 0;#P connect 38 0 39 0;#P connect 39 0 40 0;#P connect 40 0 41 0;#P connect 41 0 42 0;#P connect 42 0 15 0;#P connect 41 1 42 1;#P connect 15 1 16 1;#P connect 40 0 43 0;#P connect 37 0 43 0;#P connect 23 0 24 0;#P connect 24 0 25 0;#P hidden connect 22 1 21 0;#P connect 37 0 38 0;#P fasten 23 1 24 1 468 523 412 523;#P connect 33 0 32 0;#P fasten 21 1 22 1 654 493 662 493 662 271 655 271;#P connect 32 0 35 0;#P connect 19 2 29 0;#P connect 31 2 29 0;#P connect 26 0 27 0;#P fasten 25 0 26 0 393 582 553 582 553 505 680 505;#P connect 27 0 29 1;#P connect 32 1 35 1;#P connect 29 0 28 0;#P connect 34 0 32 1;#P connect 30 0 28 1;#P connect 19 2 30 0;#P connect 31 2 30 0;#P connect 27 1 30 1;#P connect 14 0 13 0;#P connect 10 0 8 0;#P connect 18 0 6 0;#P connect 20 2 18 0;#P connect 19 2 18 0;#P connect 10 0 8 1;#P connect 20 2 10 0;#P connect 19 2 10 0;#P connect 0 0 5 0;#P connect 11 1 0 0;#P connect 5 0 18 1;#P connect 11 0 7 0;#P connect 7 0 10 1;#P pop;